# xmcd
#
# Track frame offsets:
#	150
#	12095
#	31312
#	47245
#	67945
#	83075
#	104525
#	123862
#
# Disc length: 1940 seconds
#
# Revision: 0
# Processed by: cddbd v1.5.1PL0 Copyright (c) Steve Scherf et al.
# Submitted via: dBpowerAMP V4.0
#
DISCID=5b079208
DTITLE=Buck Truck - The Rappin' Trucker
DYEAR=1990
DGENRE=Country
TTITLE0=Buck Truck
TTITLE1=Truckin' Roots
TTITLE2=The Weird Waitress
TTITLE3=How'd I Get This Way?
TTITLE4=Elvis Once Drove A Truck
TTITLE5=Sleazy Weasel
TTITLE6=Too Old To Truck Anymore
TTITLE7=John Henry Was A Trucker
EXTD=1990 Gusto Records
EXTT0=
EXTT1=
EXTT2=
EXTT3=
EXTT4=
EXTT5=
EXTT6=
EXTT7=
PLAYORDER=
